<svg width="32" height="32" viewBox="0 0 32 32" xmlns="http://www.w3.org/2000/svg">
  <defs>
    <linearGradient id="bgGradient" x1="0%" y1="0%" x2="100%" y2="100%">
      <stop offset="0%" style="stop-color:#667eea;stop-opacity:1" />
      <stop offset="100%" style="stop-color:#764ba2;stop-opacity:1" />
    </linearGradient>
    <linearGradient id="chartGradient" x1="0%" y1="0%" x2="100%" y2="100%">
      <stop offset="0%" style="stop-color:#ffffff;stop-opacity:0.9" />
      <stop offset="100%" style="stop-color:#ffffff;stop-opacity:0.6" />
    </linearGradient>
    <filter id="shadow" x="-50%" y="-50%" width="200%" height="200%">
      <feDropShadow dx="0" dy="1" stdDeviation="1" flood-color="#000000" flood-opacity="0.2"/>
    </filter>
  </defs>
  
  <!-- Background circle with shadow -->
  <circle cx="16" cy="16" r="14" fill="url(#bgGradient)" filter="url(#shadow)"/>
  
  <!-- Modern dashboard icon -->
  <g transform="translate(16,16)">
    <!-- Central hub -->
    <circle cx="0" cy="0" r="2" fill="white" opacity="0.9"/>
    
    <!-- Chart segments -->
    <!-- Top segment (tasks) -->
    <path d="M 0,-8 A 8,8 0 0,1 5.66,-5.66 L 2.83,-2.83 A 4,4 0 0,0 0,-4 Z" 
          fill="url(#chartGradient)" opacity="0.8"/>
    
    <!-- Right segment (analytics) -->
    <path d="M 5.66,-5.66 A 8,8 0 0,1 8,0 L 4,0 A 4,4 0 0,0 2.83,-2.83 Z" 
          fill="url(#chartGradient)" opacity="0.9"/>
    
    <!-- Bottom right segment (calendar) -->
    <path d="M 8,0 A 8,8 0 0,1 5.66,5.66 L 2.83,2.83 A 4,4 0 0,0 4,0 Z" 
          fill="url(#chartGradient)" opacity="0.7"/>
    
    <!-- Bottom left segment (notes) -->
    <path d="M 5.66,5.66 A 8,8 0 0,1 0,8 L 0,4 A 4,4 0 0,0 2.83,2.83 Z" 
          fill="url(#chartGradient)" opacity="0.8"/>
    
    <!-- Left segment (settings) -->
    <path d="M 0,8 A 8,8 0 0,1 -5.66,5.66 L -2.83,2.83 A 4,4 0 0,0 0,4 Z" 
          fill="url(#chartGradient)" opacity="0.6"/>
    
    <!-- Top left segment (pomodoro) -->
    <path d="M -5.66,5.66 A 8,8 0 0,1 -8,0 L -4,0 A 4,4 0 0,0 -2.83,2.83 Z" 
          fill="url(#chartGradient)" opacity="0.9"/>
    
    <!-- Connecting lines -->
    <g stroke="white" stroke-width="0.5" opacity="0.4">
      <line x1="0" y1="-2" x2="0" y2="-4"/>
      <line x1="1.41" y1="-1.41" x2="2.83" y2="-2.83"/>
      <line x1="2" y1="0" x2="4" y2="0"/>
      <line x1="1.41" y1="1.41" x2="2.83" y2="2.83"/>
      <line x1="0" y1="2" x2="0" y2="4"/>
      <line x1="-1.41" y1="1.41" x2="-2.83" y2="2.83"/>
    </g>
    
    <!-- Accent dots -->
    <circle cx="0" cy="-6" r="0.8" fill="white" opacity="0.8"/>
    <circle cx="4.24" cy="-4.24" r="0.6" fill="white" opacity="0.7"/>
    <circle cx="6" cy="0" r="0.8" fill="white" opacity="0.9"/>
    <circle cx="4.24" cy="4.24" r="0.6" fill="white" opacity="0.6"/>
    <circle cx="0" cy="6" r="0.7" fill="white" opacity="0.7"/>
    <circle cx="-4.24" cy="4.24" r="0.8" fill="white" opacity="0.8"/>
  </g>
</svg>